<svg width="187" height="48" viewBox="0 0 187 48" fill="none" xmlns="http://www.w3.org/2000/svg">
<path d="M9.43393 0.372437L0.209717 5.66899L9.43393 10.9655L0.209717 16.1793L9.43393 21.4759L0.209717 26.6897L9.43393 31.9862L21.4254 25.2L27.9662 31.9862V21.5173L37.1904 16.2207L9.43393 0.372437ZM26.2891 27.6L11.1111 11.8759L26.2891 20.4828V27.6Z" fill="black"/>
<path d="M186.79 24H183.52V18.7035H180.585V24H177.231V26.8138H180.585V40.5517H183.52V26.7724H186.79V24ZM170.019 23.5862C169.046 23.5335 168.076 23.7353 167.207 24.1713C166.338 24.6072 165.602 25.2619 165.071 26.069V24H162.136V40.5517H165.071V31.0759C165.018 30.4163 165.103 29.753 165.319 29.1268C165.535 28.5006 165.879 27.9247 166.329 27.4345C167.125 26.6982 168.173 26.2846 169.264 26.2759C169.724 26.2528 170.184 26.3215 170.616 26.4779C171.048 26.6343 171.444 26.8752 171.78 27.1862C172.113 27.5395 172.367 27.9577 172.526 28.4139C172.684 28.87 172.745 29.354 172.702 29.8345V40.4276H175.637V29.669C175.656 28.522 175.397 27.3872 174.883 26.3586C174.419 25.4766 173.724 24.7335 172.87 24.2069C171.987 23.7655 171.009 23.5385 170.019 23.5448V23.5862ZM145.91 31.0759C146.069 29.7322 146.726 28.4941 147.755 27.6C148.812 26.7268 150.151 26.2569 151.529 26.2759C152.816 26.2566 154.067 26.6975 155.051 27.5173C155.571 27.9636 155.995 28.5086 156.297 29.12C156.6 29.7313 156.775 30.3965 156.812 31.0759H145.91ZM159.747 33.5586C159.816 33.1208 159.844 32.6775 159.83 32.2345C159.837 30.716 159.492 29.2161 158.824 27.8483C158.182 26.5409 157.198 25.4266 155.973 24.6207C154.673 23.8043 153.152 23.4 151.612 23.4621C150.027 23.4522 148.465 23.8516 147.084 24.6207C145.773 25.3628 144.698 26.4521 143.982 27.7655C143.229 29.1358 142.853 30.6765 142.891 32.2345C142.853 33.7925 143.229 35.3332 143.982 36.7035C144.698 38.0169 145.773 39.1062 147.084 39.8483C148.465 40.6174 150.027 41.0168 151.612 41.0069C153.339 41.0235 155.032 40.5338 156.476 39.6C157.782 38.7229 158.756 37.4418 159.243 35.9586H156.225C155.866 36.7264 155.242 37.3426 154.464 37.6966C153.414 38.2159 152.238 38.4368 151.068 38.3345C149.898 38.2322 148.78 37.8107 147.839 37.1173C146.767 36.2112 146.079 34.9413 145.91 33.5586H159.747ZM131.445 38.069C130.391 38.0778 129.352 37.8214 128.426 37.3241C127.523 36.8052 126.772 36.0638 126.246 35.1724C125.75 34.2555 125.491 33.2323 125.491 32.1931C125.491 31.1539 125.75 30.1307 126.246 29.2138C126.772 28.3224 127.523 27.581 128.426 27.0621C129.355 26.5731 130.392 26.3173 131.445 26.3173C132.498 26.3173 133.535 26.5731 134.464 27.0621C135.367 27.581 136.118 28.3224 136.644 29.2138C137.14 30.1307 137.399 31.1539 137.399 32.1931C137.399 33.2323 137.14 34.2555 136.644 35.1724C136.118 36.0638 135.367 36.8052 134.464 37.3241C133.538 37.8214 132.499 38.0778 131.445 38.069ZM137.399 24V26.8966C136.717 25.8919 135.795 25.0678 134.715 24.4966C133.581 23.896 132.313 23.5831 131.026 23.5862C129.522 23.5985 128.048 23.9979 126.749 24.7448C125.438 25.4869 124.363 26.5762 123.646 27.8897C122.878 29.1972 122.473 30.6817 122.472 32.1931C122.473 33.7307 122.878 35.2418 123.646 36.5793C124.387 37.8755 125.456 38.9593 126.749 39.7241C128.039 40.4918 129.519 40.8928 131.026 40.8828C132.282 40.8914 133.521 40.5937 134.633 40.0163C135.745 39.4388 136.695 38.5993 137.399 37.5724V39.8897C137.429 40.5733 137.318 41.2559 137.073 41.896C136.828 42.5362 136.454 43.1206 135.973 43.6138C134.828 44.5625 133.356 45.037 131.864 44.9379C130.907 44.9806 129.954 44.7812 129.097 44.3586C128.369 44.0556 127.733 43.5708 127.252 42.9517C126.872 42.4498 126.666 41.8403 126.665 41.2138H123.73C123.735 42.4158 124.149 43.5814 124.904 44.5242C125.679 45.5326 126.725 46.3066 127.923 46.7586C129.159 47.3178 130.505 47.6004 131.864 47.5862C133.312 47.589 134.744 47.2782 136.057 46.6759C137.324 46.0995 138.399 45.1814 139.16 44.0276C139.959 42.7634 140.367 41.2966 140.334 39.8069V24H137.399ZM116.938 40.5517H119.915V24H116.98L116.938 40.5517ZM116.938 21.0207H119.915V17.3793H116.98L116.938 21.0207ZM110.397 40.5517H113.332V16.6759H110.397V40.5517ZM103.856 40.5517H106.791V16.6759H103.856V40.5517ZM87.588 31.1173C87.747 29.7736 88.4042 28.5355 89.4329 27.6414C90.4894 26.7682 91.8284 26.2983 93.2064 26.3173C94.4937 26.2979 95.7447 26.7389 96.7284 27.5586C97.2487 28.0049 97.6727 28.55 97.9753 29.1613C98.2778 29.7727 98.4526 30.4379 98.4894 31.1173H87.588ZM101.424 33.6C101.494 33.1622 101.522 32.7189 101.508 32.2759C101.514 30.7574 101.17 29.2574 100.502 27.8897C99.8599 26.5823 98.8756 25.468 97.6508 24.6621C96.3512 23.8457 94.8295 23.4414 93.2903 23.5035C91.7043 23.4936 90.1433 23.893 88.762 24.6621C87.4507 25.4041 86.376 26.4935 85.6593 27.8069C84.907 29.1772 84.5312 30.7179 84.5692 32.2759C84.5312 33.8339 84.907 35.3746 85.6593 36.7448C86.376 38.0583 87.4507 39.1476 88.762 39.8897C90.1433 40.6588 91.7043 41.0582 93.2903 41.0483C95.0169 41.0648 96.7096 40.5752 98.1539 39.6414C99.4602 38.7643 100.434 37.4832 100.921 36H97.9024C97.5438 36.7678 96.9193 37.384 96.1414 37.7379C95.0914 38.2573 93.9157 38.4782 92.7458 38.3759C91.5758 38.2736 90.4578 37.8521 89.5167 37.1586C88.9717 36.7217 88.5205 36.182 88.1893 35.571C87.8582 34.9599 87.6537 34.2899 87.588 33.6H101.424ZM84.1499 24H80.8795V18.7035H77.9864V24H74.6322V26.8138H77.9864V40.5517H80.9214V26.7724H84.1918L84.1499 24ZM63.7308 38.1931C62.6768 38.2019 61.6379 37.9456 60.712 37.4483C59.8088 36.9294 59.0575 36.1879 58.5317 35.2966C58.0362 34.3796 57.777 33.3564 57.777 32.3173C57.777 31.2781 58.0362 30.2549 58.5317 29.3379C59.0339 28.4288 59.7908 27.6818 60.712 27.1862C61.6411 26.6972 62.6779 26.4414 63.7308 26.4414C64.7838 26.4414 65.8206 26.6972 66.7497 27.1862C67.6529 27.7051 68.4041 28.4466 68.9299 29.3379C69.4255 30.2549 69.6846 31.2781 69.6846 32.3173C69.6846 33.3564 69.4255 34.3796 68.9299 35.2966C68.4278 36.2057 67.6708 36.9527 66.7497 37.4483C65.8317 37.9652 64.7873 38.2228 63.7308 38.1931ZM69.7266 17.3793V26.8138C69.0346 25.7809 68.0847 24.9413 66.9685 24.376C65.8522 23.8107 64.6072 23.5387 63.3535 23.5862C61.8749 23.5875 60.4249 23.9882 59.1607 24.7448C57.8679 25.5103 56.7988 26.5939 56.058 27.8897C55.2883 29.2267 54.8837 30.7381 54.8837 32.2759C54.8837 33.8136 55.2883 35.325 56.058 36.6621C56.7988 37.9578 57.8679 39.0415 59.1607 39.8069C60.4249 40.5635 61.8749 40.9642 63.3535 40.9655C64.6349 41.0059 65.9053 40.721 67.0432 40.1379C68.1065 39.5437 69.023 38.724 69.7266 37.7379V40.5517H72.6616V17.3793H69.7266ZM43.3118 38.2345C42.2577 38.2433 41.2188 37.987 40.2929 37.4897C39.3897 36.9707 38.6385 36.2293 38.1127 35.3379C37.6172 34.421 37.358 33.3978 37.358 32.3586C37.358 31.3194 37.6172 30.2962 38.1127 29.3793C38.6148 28.4702 39.3718 27.7232 40.2929 27.2276C41.222 26.7386 42.2588 26.4828 43.3118 26.4828C44.3647 26.4828 45.4015 26.7386 46.3306 27.2276C47.2338 27.7465 47.9851 28.4879 48.5109 29.3793C49.0064 30.2962 49.2656 31.3194 49.2656 32.3586C49.2656 33.3978 49.0064 34.421 48.5109 35.3379C48.0087 36.247 47.2518 36.9941 46.3306 37.4897C45.4126 38.0065 44.3682 38.2642 43.3118 38.2345ZM49.2656 24V26.8138C48.5736 25.7809 47.6238 24.9413 46.5075 24.376C45.3912 23.8107 44.1462 23.5387 42.8925 23.5862C41.3858 23.5909 39.9076 23.9922 38.6105 24.7486C37.3133 25.5051 36.2441 26.5894 35.5131 27.8897C34.7435 29.2267 34.3389 30.7381 34.3389 32.2759C34.3389 33.8136 34.7435 35.325 35.5131 36.6621C36.2441 37.9623 37.3133 39.0466 38.6105 39.8031C39.9076 40.5596 41.3858 40.9608 42.8925 40.9655C44.1739 41.0059 45.4444 40.721 46.5822 40.1379C47.6455 39.5437 48.562 38.724 49.2656 37.7379V40.5517H52.2006V24H49.2656Z" fill="black"/>
</svg>
