<svg width="174" height="44" viewBox="0 0 174 44" fill="none" xmlns="http://www.w3.org/2000/svg">
<g clip-path="url(#clip0)">
<path d="M44.1065 22C44.1065 17.0441 42.4291 12.2333 39.3461 8.34719C36.2631 4.46104 31.9551 1.72718 27.1201 0.588541C22.285 -0.550098 17.2063 -0.0268067 12.7066 2.07363C8.20691 4.17407 4.54997 7.7286 2.32825 12.1613C0.106526 16.594 -0.549813 21.6453 0.465572 26.4966C1.48096 31.3479 4.10858 35.7151 7.92271 38.8906C11.7368 42.0661 16.514 43.8638 21.4803 43.9926C26.4465 44.1214 31.3109 42.5736 35.2852 39.6H21.4946C18.0497 39.5068 14.7075 38.4091 11.8809 36.4425C9.05426 34.4759 6.86685 31.7265 5.58877 28.5338C4.31069 25.3411 3.9979 21.8449 4.68902 18.4769C5.38015 15.1088 7.04492 12.0165 9.47779 9.5816C11.9107 7.14673 15.0051 5.47596 18.379 4.77559C21.7529 4.07522 25.2586 4.37592 28.4631 5.64056C31.6677 6.9052 34.4308 9.0784 36.4113 11.8918C38.3918 14.7053 39.503 18.0357 39.6076 21.472V35.2C42.5254 31.4153 44.1071 26.7745 44.1065 22Z" fill="white"/>
<path d="M33.0651 32.9854V23.7454H26.2139C25.7947 24.7115 25.0648 25.5108 24.1395 26.017C23.2143 26.5232 22.1463 26.7075 21.1043 26.5409C20.0624 26.3743 19.1057 25.8662 18.3854 25.0968C17.6651 24.3274 17.2223 23.3406 17.1267 22.2922C17.0312 21.2438 17.2884 20.1935 17.8578 19.3072C18.4272 18.4208 19.2763 17.7489 20.2711 17.3976C21.2659 17.0462 22.3497 17.0355 23.3513 17.3669C24.3529 17.6984 25.2153 18.3533 25.8023 19.2281H32.727C32.239 17.227 31.2033 15.4005 29.7356 13.9522C28.2679 12.5039 26.4257 11.4909 24.4146 11.0259C22.4034 10.561 20.3024 10.6624 18.3456 11.319C16.3889 11.9756 14.6535 13.1615 13.3329 14.7445C12.0123 16.3274 11.1584 18.2452 10.8664 20.284C10.5744 22.3227 10.8559 24.4023 11.6794 26.2908C12.5029 28.1793 13.836 29.8025 15.5301 30.9794C17.2243 32.1563 19.2128 32.8407 21.274 32.9561L33.0651 32.9854Z" fill="white"/>
<path d="M59.3968 15.796C57.897 15.7989 56.4317 16.2453 55.1861 17.0786C53.9405 17.912 52.9704 19.0949 52.3985 20.478C51.8265 21.8612 51.6784 23.3824 51.9728 24.8495C52.2671 26.3165 52.9908 27.6637 54.0524 28.7206C55.1139 29.7775 56.4657 30.4969 57.9369 30.7877C59.4081 31.0785 60.9327 30.9278 62.3181 30.3546C63.7034 29.7813 64.8874 28.8113 65.7203 27.5671C66.5533 26.3228 66.9978 24.8602 66.9978 23.364C67.0077 22.3662 66.8177 21.3765 66.439 20.4529C66.0603 19.5293 65.5006 18.6904 64.7926 17.9855C64.0846 17.2806 63.2426 16.7238 62.3161 16.3479C61.3895 15.9719 60.397 15.7843 59.3968 15.796ZM59.3968 27.324C58.8773 27.3324 58.3615 27.235 57.881 27.0378C57.4004 26.8406 56.9653 26.5478 56.602 26.1772C56.2387 25.8066 55.955 25.366 55.7682 24.8823C55.5814 24.3986 55.4954 23.882 55.5154 23.364C55.4828 22.8345 55.5591 22.304 55.7398 21.805C55.9205 21.3061 56.2016 20.8493 56.5659 20.4628C56.9302 20.0764 57.37 19.7684 57.8581 19.5579C58.3462 19.3473 58.8724 19.2387 59.4042 19.2387C59.9359 19.2387 60.4621 19.3473 60.9502 19.5579C61.4384 19.7684 61.8781 20.0764 62.2424 20.4628C62.6067 20.8493 62.8879 21.3061 63.0685 21.805C63.2492 22.304 63.3255 22.8345 63.2929 23.364C63.313 23.8833 63.2266 24.4011 63.0389 24.8858C62.8511 25.3705 62.5661 25.8118 62.2013 26.1826C61.8364 26.5534 61.3995 26.846 60.9172 27.0422C60.4349 27.2385 59.9176 27.3344 59.3968 27.324ZM73.1286 18.6707V16.1334H69.4237V30.4774H73.1286V23.6867C73.1022 23.1329 73.2052 22.5805 73.4295 22.0731C73.6537 21.5657 73.9931 21.1173 74.4208 20.7632C74.8485 20.4091 75.3528 20.1589 75.894 20.0325C76.4352 19.9061 76.9984 19.9068 77.5393 20.0347V15.9134C76.606 15.8468 75.6756 16.0781 74.8827 16.5738C74.0899 17.0695 73.4756 17.8038 73.1286 18.6707ZM90.3007 17.8934C89.7403 17.2033 89.0253 16.654 88.2133 16.2897C87.4013 15.9254 86.5149 15.7563 85.6255 15.796C84.6688 15.8337 83.7291 16.0597 82.8604 16.461C81.9916 16.8623 81.211 17.4309 80.5634 18.1343C79.9157 18.8376 79.4138 19.6617 79.0866 20.5593C78.7594 21.4568 78.6133 22.41 78.6566 23.364C78.6133 24.3181 78.7594 25.2713 79.0866 26.1688C79.4138 27.0664 79.9157 27.8905 80.5634 28.5938C81.211 29.2972 81.9916 29.8658 82.8604 30.2671C83.7291 30.6684 84.6688 30.8944 85.6255 30.932C86.5149 30.9717 87.4013 30.8027 88.2133 30.4384C89.0253 30.0741 89.7403 29.5248 90.3007 28.8347V30.536H94.0057V16.1334H90.3007V17.8934ZM86.3165 27.412C85.7818 27.4312 85.249 27.339 84.752 27.1413C84.2551 26.9437 83.8048 26.6449 83.43 26.2641C83.0551 25.8832 82.7639 25.4287 82.5749 24.9294C82.3859 24.4301 82.3032 23.897 82.3322 23.364C82.3322 22.3138 82.7504 21.3065 83.4948 20.5639C84.2393 19.8213 85.249 19.404 86.3018 19.404C87.3546 19.404 88.3642 19.8213 89.1087 20.5639C89.8531 21.3065 90.2713 22.3138 90.2713 23.364C90.2978 23.8939 90.2144 24.4235 90.0263 24.9197C89.8383 25.416 89.5497 25.8682 89.1785 26.2481C88.8073 26.628 88.3616 26.9275 87.8691 27.1278C87.3767 27.328 86.8481 27.4248 86.3165 27.412ZM105.223 15.796C104.398 15.7419 103.572 15.8979 102.824 16.2494C102.076 16.6008 101.429 17.1363 100.945 17.8054V16.1334H97.2549V30.4774H100.945V22.792C100.945 20.2987 102.298 19.2427 104.106 19.2427C104.495 19.2147 104.885 19.2722 105.249 19.4112C105.613 19.5502 105.942 19.7672 106.213 20.0471C106.483 20.3269 106.689 20.6626 106.816 21.0305C106.942 21.3984 106.986 21.7894 106.944 22.176V30.5214H110.649V21.7214C110.649 17.9227 108.267 15.796 105.223 15.796ZM124.674 17.9814C124.145 17.273 123.451 16.7038 122.652 16.3231C121.852 15.9423 120.972 15.7614 120.087 15.796C119.134 15.8036 118.191 16 117.314 16.3737C116.437 16.7475 115.643 17.2912 114.979 17.9734C114.314 18.6556 113.792 19.4626 113.442 20.3477C113.093 21.2327 112.923 22.1783 112.942 23.1294C112.921 24.081 113.089 25.0274 113.438 25.9134C113.787 26.7993 114.309 27.6071 114.974 28.2897C115.639 28.9723 116.434 29.5159 117.312 29.889C118.19 30.2621 119.133 30.4571 120.087 30.4627C120.972 30.4973 121.852 30.3165 122.652 29.9357C123.451 29.555 124.145 28.9858 124.674 28.2774V29.832C124.706 30.3218 124.63 30.8126 124.449 31.2692C124.269 31.7258 123.99 32.1371 123.631 32.4734C123.273 32.8098 122.845 33.063 122.377 33.2149C121.909 33.3668 121.413 33.4136 120.925 33.352C120.167 33.4453 119.398 33.3022 118.724 32.9425C118.05 32.5828 117.505 32.024 117.162 31.3427L114.001 33.1614C114.703 34.3134 115.709 35.2501 116.91 35.8685C118.111 36.4869 119.46 36.7631 120.808 36.6667C124.586 36.6667 128.291 34.54 128.291 29.8467V16.1334H124.674V17.9814ZM120.661 27.06C119.889 27.0427 119.139 26.7988 118.506 26.3588C117.872 25.9187 117.383 25.3021 117.099 24.5861C116.815 23.87 116.749 23.0863 116.909 22.3329C117.069 21.5796 117.448 20.89 117.999 20.3505C118.55 19.811 119.248 19.4456 120.006 19.2998C120.764 19.1541 121.548 19.2345 122.261 19.5311C122.973 19.8276 123.582 20.3272 124.011 20.9672C124.441 21.6072 124.671 22.3593 124.674 23.1294C124.689 23.6558 124.595 24.1796 124.397 24.668C124.2 25.1564 123.903 25.5989 123.527 25.9679C123.15 26.3368 122.701 26.6242 122.208 26.8121C121.715 27.0001 121.188 27.0845 120.661 27.06ZM138.377 15.796C137.377 15.7716 136.382 15.951 135.454 16.3235C134.525 16.6959 133.683 17.2534 132.978 17.9619C132.274 18.6704 131.721 19.515 131.355 20.4439C130.989 21.3728 130.817 22.3665 130.849 23.364C130.814 24.3914 130.995 25.4147 131.382 26.3676C131.768 27.3205 132.351 28.1817 133.093 28.8953C133.834 29.609 134.718 30.159 135.687 30.5099C136.655 30.8608 137.687 31.0046 138.715 30.932C139.923 30.9766 141.123 30.7196 142.207 30.1844C143.29 29.6491 144.223 28.8524 144.919 27.8667L141.979 26.1507C141.591 26.6253 141.099 27.0044 140.54 27.2588C139.982 27.5131 139.373 27.6358 138.759 27.6174C137.868 27.7325 136.966 27.5249 136.216 27.0323C135.466 26.5397 134.918 25.7949 134.672 24.9334H145.551C145.643 24.4496 145.692 23.9589 145.698 23.4667C145.757 22.4751 145.61 21.4821 145.268 20.5494C144.926 19.6166 144.395 18.7641 143.708 18.0447C143.021 17.3254 142.194 16.7546 141.277 16.3677C140.36 15.9809 139.372 15.7863 138.377 15.796ZM134.613 22C134.767 21.134 135.237 20.3553 135.931 19.8137C136.626 19.2722 137.497 19.0061 138.377 19.0667C139.227 19.0353 140.06 19.3168 140.716 19.8576C141.372 20.3984 141.805 21.1609 141.935 22H134.613ZM158.989 17.8787C158.433 17.1994 157.727 16.6578 156.926 16.2965C156.125 15.9351 155.251 15.7638 154.373 15.796C153.416 15.8337 152.476 16.0597 151.608 16.461C150.739 16.8623 149.958 17.4309 149.311 18.1343C148.663 18.8376 148.161 19.6617 147.834 20.5593C147.507 21.4568 147.361 22.41 147.404 23.364C147.361 24.3181 147.507 25.2713 147.834 26.1688C148.161 27.0664 148.663 27.8905 149.311 28.5938C149.958 29.2972 150.739 29.8658 151.608 30.2671C152.476 30.6684 153.416 30.8944 154.373 30.932C155.262 30.9717 156.149 30.8027 156.961 30.4384C157.773 30.0741 158.488 29.5248 159.048 28.8347V30.536H162.753V16.1334H159.048L158.989 17.8787ZM155.005 27.3974C154.473 27.4123 153.943 27.3171 153.45 27.1176C152.956 26.9181 152.51 26.6187 152.138 26.2383C151.766 25.8579 151.478 25.4048 151.29 24.9076C151.103 24.4103 151.021 23.8798 151.05 23.3494C151.05 22.2991 151.468 21.2919 152.213 20.5492C152.957 19.8066 153.967 19.3894 155.02 19.3894C156.072 19.3894 157.082 19.8066 157.827 20.5492C158.571 21.2919 158.989 22.2991 158.989 23.3494C159.018 23.883 158.935 24.4167 158.746 24.9167C158.558 25.4168 158.267 25.8722 157.892 26.2542C157.517 26.6362 157.067 26.9363 156.57 27.1356C156.073 27.3349 155.54 27.4291 155.005 27.412V27.3974ZM169.634 18.5974V16.1334H165.929V30.4774H169.634V23.6867C169.607 23.1329 169.71 22.5805 169.934 22.0731C170.159 21.5657 170.498 21.1173 170.926 20.7632C171.353 20.4091 171.858 20.1589 172.399 20.0325C172.94 19.9061 173.503 19.9068 174.044 20.0347V15.9134C173.111 15.8468 172.181 16.0781 171.388 16.5738C170.595 17.0695 169.98 17.8038 169.634 18.6707V18.5974Z" fill="white"/>
</g>
<defs>
<clipPath id="clip0">
<rect width="174" height="44" fill="white"/>
</clipPath>
</defs>
</svg>
