<svg width="138" height="61" viewBox="0 0 138 61" fill="none" xmlns="http://www.w3.org/2000/svg">
<path fill-rule="evenodd" clip-rule="evenodd" d="M26.542 4.66653L26.7567 6.19153C19.9027 20.0538 28.6427 18.9253 28.6427 18.9253L29.7467 18.727L29.9154 19.0625C46.1534 17.2325 55.0314 25.6353 55.0314 25.6353C56.212 5.74928 26.542 4.66653 26.542 4.66653Z" fill="#F8B829"/>
<path d="M16.3455 51.4993C15.6555 56.0743 19.4122 58.7278 20.0102 57.2638C21.6662 55.1136 22.2488 55.7388 23.0768 52.5058C23.3791 52.1043 23.7292 51.7408 24.1195 51.4231C24.9577 50.5589 25.7653 49.6744 26.5422 48.7696C28.8336 46.1914 30.7911 43.3378 32.3688 40.2753C34.1193 37.1831 34.7575 33.5898 34.1782 30.0883C33.551 28.317 32.6566 26.651 31.5255 25.1473C31.1802 24.3601 31.0228 23.5041 31.0655 22.6463C31.0275 21.3631 30.6407 20.1141 29.9462 19.0321C29.5876 18.6475 29.3148 18.192 29.1457 17.6953C28.9766 17.1985 28.915 16.6719 28.9648 16.1498C29.1642 14.9908 29.1642 13.8471 29.3328 12.6881C29.4391 10.5223 29.0402 8.36154 28.1675 6.37456C28.1675 6.37456 27.0942 4.48356 26.1435 4.95631C24.4509 3.89046 22.4836 3.33609 20.4804 3.36045C18.4771 3.38481 16.5241 3.98687 14.8582 5.09356C14.8582 5.09356 -7.09917 19.0473 12.6962 45.8568C12.0982 49.3338 14.2295 52.9176 15.8855 55.2966" fill="#005D86"/>
<path d="M26.4502 20.8926L23.4756 7.41157C23.4756 7.41157 21.7276 2.22657 17.1276 8.76882L16.3609 7.76232C12.1289 13.7251 6.39423 20.8773 7.66689 28.6243C7.852 30.0543 8.34851 31.4268 9.1218 32.6463C9.89509 33.8658 10.9265 34.9028 12.1442 35.6851C13.9386 36.9244 16.111 37.5033 18.2881 37.3225C20.4651 37.1416 22.5108 36.2121 24.0736 34.6938C26.4656 32.7113 28.4129 28.6853 26.4502 20.8926Z" fill="white"/>
<path fill-rule="evenodd" clip-rule="evenodd" d="M29.9154 19.1083C29.9154 19.1083 44.1141 16.9123 55.0314 25.6811C55.0314 25.6811 44.7581 12.2763 28.3821 14.7621C28.3974 14.7621 27.2167 18.0561 29.9154 19.1083Z" fill="#F19320"/>
<path d="M55.0314 25.681C55.3199 22.222 54.4404 18.766 52.532 15.86C52.3787 15.6618 51.198 18.2238 51.1827 18.4525C51.12 19.5211 51.3818 20.5838 51.934 21.5025C52.716 22.936 54.6174 24.1103 55.0007 25.6505" fill="#E95253"/>
<path d="M1.53345 45.0485C3.54041 45.8081 5.73033 45.9516 7.82011 45.4603C10.7488 45.8568 12.2821 46.7718 15.7781 47.1683C20.0561 47.1683 24.3034 46.7108 28.5508 46.3143C29.9308 46.1923 32.9974 46.0245 34.1628 47.1073C34.8374 47.7325 34.6381 49.4253 34.6534 50.3098C32.1188 49.3485 29.4499 48.7827 26.7414 48.6323C23.6748 48.6323 20.5008 48.7695 17.3881 48.739C15.2649 48.7452 13.1455 48.5615 11.0554 48.19C9.10811 47.824 7.19145 47.3208 5.24411 46.9243C3.83345 46.6193 2.11611 46.3753 1.53345 45.0485Z" fill="#9B5F48"/>
<path d="M28.8728 47.7935C28.8728 48.2815 28.4435 49.3185 28.0448 49.3185C27.6461 49.3185 27.2168 48.2968 27.2168 47.7935V46.0703C27.2168 45.5823 27.5235 45.0943 27.9221 45.0943C28.1632 45.131 28.385 45.2471 28.5518 45.4241C28.7187 45.6011 28.8209 45.8286 28.8421 46.0703L28.8728 47.7935Z" fill="#969595"/>
<path d="M27.2168 48.0376C27.2168 48.4188 26.9101 49.2118 26.5881 49.2118C26.2661 49.2118 25.9595 48.4188 25.9595 48.0376V46.6803C25.9595 46.2991 26.1895 45.9178 26.5115 45.9178C26.6959 45.9463 26.8644 46.0382 26.9877 46.1775C27.1109 46.3169 27.1812 46.4948 27.1861 46.6803L27.2168 48.0376Z" fill="#838383"/>
<path d="M12.0061 47.7935C12.0061 48.2815 12.4354 49.3185 12.8341 49.3185C13.2328 49.3185 13.6621 48.2968 13.6621 47.7935V46.0703C13.6621 45.5823 13.3554 45.0943 12.9568 45.0943C12.7157 45.131 12.4939 45.2471 12.3271 45.4241C12.1602 45.6011 12.058 45.8286 12.0368 46.0703L12.0061 47.7935Z" fill="#969595"/>
<path d="M13.6621 48.0376C13.6621 48.4188 13.9688 49.2118 14.2908 49.2118C14.6128 49.2118 14.9194 48.4188 14.9194 48.0376V46.6803C14.9194 46.2991 14.6894 45.9178 14.3674 45.9178C14.183 45.9463 14.0145 46.0382 13.8913 46.1775C13.768 46.3169 13.6977 46.4948 13.6928 46.6803L13.6621 48.0376Z" fill="#838383"/>
<path d="M29.5781 14.457C29.9461 13.5878 30.6207 10.8885 28.7501 6.23729C28.4127 5.52054 27.5694 3.85828 25.7754 4.71228C25.5147 5.10878 29.0107 7.28953 28.2901 14.9755C28.2901 14.9755 27.3854 18.1933 29.9154 19.093C29.5389 18.3018 29.3451 17.4369 29.3481 16.5615C29.2945 15.8519 29.3725 15.1386 29.5781 14.457ZM29.4094 14.762C29.4094 14.762 29.4094 14.762 29.4247 14.762H29.4094Z" fill="#003B55"/>
<path d="M26.542 11.6205C27.2167 15.2195 25.4074 17.263 21.8194 17.3088C19.0594 17.3088 15.042 16.7293 14.6587 13.3743C14.3367 10.4615 16.192 6.51176 19.1667 5.62726C23.2914 4.37676 25.898 8.08251 26.5574 11.6205H26.542Z" fill="#F8B829"/>
<path d="M24.3495 11.3613C24.4911 11.7848 24.521 12.2374 24.4363 12.6758C24.3517 13.1141 24.1553 13.5235 23.866 13.8648C23.5768 14.2061 23.2043 14.4678 22.7842 14.6249C22.3641 14.7819 21.9105 14.8292 21.4668 14.762C19.7188 14.762 17.2808 14.3503 17.1275 12.2305C17.0454 11.2664 17.2728 10.3012 17.777 9.47366C18.2812 8.64614 19.0362 7.99891 19.9335 7.625C22.4021 6.93875 23.9355 9.15 24.3035 11.3003L24.3495 11.3613Z" fill="#005D86"/>
<path fill-rule="evenodd" clip-rule="evenodd" d="M23.0001 10.9038C23.0001 11.4721 22.7731 12.0171 22.3691 12.4189C21.9651 12.8207 21.4171 13.0465 20.8457 13.0465C20.2744 13.0465 19.7264 12.8207 19.3224 12.4189C18.9184 12.0171 18.6914 11.4721 18.6914 10.9038C18.6914 10.3356 18.9184 9.79058 19.3224 9.38876C19.7264 8.98694 20.2744 8.7612 20.8457 8.7612C21.4171 8.7612 21.9651 8.98694 22.3691 9.38876C22.7731 9.79058 23.0001 10.3356 23.0001 10.9038Z" fill="#151410"/>
<path fill-rule="evenodd" clip-rule="evenodd" d="M21.1447 9.54655C21.1447 9.9278 20.8074 9.54655 20.8074 9.54655C20.8074 9.54655 21.1447 9.15005 21.1447 9.54655Z" fill="white"/>
<path fill-rule="evenodd" clip-rule="evenodd" d="M19.9336 9.53134C19.7189 9.53134 19.6729 9.76009 19.6422 10.0041C19.5844 10.026 19.5322 10.0605 19.4896 10.105C19.4469 10.1496 19.4149 10.2031 19.3958 10.2616C19.3766 10.3202 19.3709 10.3822 19.3791 10.4432C19.3873 10.5042 19.4091 10.5626 19.4429 10.6141C19.4429 10.6141 20.4856 9.63809 20.5622 9.69909C20.4752 9.62873 20.3742 9.57742 20.2659 9.54851C20.1576 9.5196 20.0443 9.51375 19.9336 9.53134Z" fill="white"/>
<path d="M54.2034 44.7132C54.3242 44.7103 54.4443 44.7334 54.5554 44.7807C54.6665 44.8281 54.7661 44.8987 54.8474 44.9877L56.6567 46.9092C53.912 50.3862 48.6527 51.1639 44.6354 49.6847C42.6384 48.8725 40.9338 47.4807 39.744 45.6907C38.5542 43.9008 37.9343 41.7957 37.9654 39.6502C37.8003 37.4764 38.2859 35.3027 39.361 33.403C40.4361 31.5033 42.0526 29.9626 44.0067 28.9752C46.0233 28.0417 48.2722 27.7218 50.4711 28.0555C52.6699 28.3892 54.7205 29.3617 56.3654 30.8509L54.832 32.9249C54.004 34.1144 52.7314 32.8029 51.8727 32.3912C50.5988 31.8071 49.1782 31.6159 47.794 31.8422C46.3733 32.1344 45.0938 32.8964 44.1639 34.004C43.234 35.1116 42.7084 36.4996 42.6727 37.9422C42.4469 39.309 42.5795 40.7107 43.0576 42.0117C43.5357 43.3127 44.3432 44.469 45.402 45.3689C46.6119 46.175 48.052 46.5691 49.5063 46.4921C50.9605 46.4152 52.3504 45.8712 53.4674 44.9419C53.6801 44.7859 53.9392 44.7053 54.2034 44.7132Z" fill="white"/>
<path d="M62.8668 27.6178V50.0963H58.6501V27.6178H62.8668Z" fill="white"/>
<path d="M70.6255 34.5566V50.1116H66.4548V34.5566H70.6255Z" fill="white"/>
<path d="M71.1314 30.0426C71.1314 33.2909 65.9487 33.3061 65.9487 30.0426C65.9487 26.7791 71.1314 26.7791 71.1314 30.0426Z" fill="white"/>
<path d="M85.5446 38.0184C84.8853 38.9029 84.18 38.3539 83.444 38.0184C82.5367 37.509 81.4754 37.3411 80.454 37.5457C78.338 38.0184 77.7246 40.1687 77.6633 42.1207C77.602 44.0727 78.016 46.2992 79.948 47.0769C80.4403 47.264 80.9654 47.351 81.4922 47.3326C82.0189 47.3143 82.5366 47.191 83.0146 46.9702C83.766 46.6194 84.8393 45.2927 85.6213 46.3144L86.8173 47.8394C85.7368 48.9778 84.3498 49.7829 82.8218 50.1587C81.2939 50.5346 79.6894 50.4653 78.2 49.9592C76.7319 49.3719 75.4826 48.3472 74.6233 47.0257C73.764 45.7042 73.337 44.1507 73.4006 42.5782C73.2575 40.9728 73.6244 39.3632 74.4496 37.9761C75.2749 36.589 76.5169 35.4944 78.0006 34.8464C79.46 34.2867 81.05 34.1544 82.5826 34.4652C84.1151 34.776 85.5261 35.5169 86.6486 36.6002L85.5446 38.0184Z" fill="white"/>
<path d="M93.0734 27.6178V40.3821H93.7634C93.9732 40.392 94.1822 40.3481 94.3701 40.2547C94.5581 40.1612 94.7187 40.0213 94.8367 39.8483L98.2867 35.2733C98.4456 35.05 98.6575 34.8691 98.9036 34.7467C99.1497 34.6243 99.4223 34.5642 99.6973 34.5718H103.515L99.0533 40.2143C98.7239 40.6637 98.3067 41.0424 97.8267 41.3276C98.2783 41.6695 98.6542 42.1004 98.9307 42.5933L103.761 50.0811H100.004C99.7256 50.1006 99.447 50.0442 99.1984 49.9179C98.9498 49.7916 98.7406 49.6002 98.5934 49.3643L95.0667 43.6608C94.9603 43.4635 94.7966 43.3026 94.597 43.1992C94.3973 43.0959 94.1709 43.0548 93.9474 43.0813H93.0734V50.0963H88.9333V27.6178H93.0734Z" fill="white"/>
<path d="M109.618 27.6178V40.3821H110.308C110.518 40.392 110.727 40.3481 110.915 40.2547C111.103 40.1612 111.263 40.0213 111.381 39.8483L114.831 35.2733C114.99 35.05 115.202 34.8691 115.448 34.7467C115.694 34.6243 115.967 34.5642 116.242 34.5718H120.06L115.567 40.2448C115.238 40.6942 114.821 41.0729 114.341 41.3581C114.792 41.7 115.168 42.1309 115.445 42.6238L120.275 50.1116H116.533C116.255 50.1311 115.976 50.0747 115.728 49.9484C115.479 49.8221 115.27 49.6307 115.123 49.3948L111.611 43.6761C111.505 43.4787 111.341 43.3179 111.142 43.2145C110.942 43.1111 110.716 43.07 110.492 43.0966H109.618V50.1116H105.432V27.6178H109.618Z" fill="white"/>
<path d="M128.033 54.2749C127.926 54.5415 127.736 54.7669 127.49 54.9178C127.244 55.0688 126.957 55.1374 126.669 55.1136H123.602L126.515 48.8001L120.244 34.4956H123.909C124.157 34.4843 124.403 34.5502 124.611 34.6842C124.82 34.8181 124.982 35.0134 125.074 35.2429L128.049 42.7001C128.263 43.2898 128.447 43.8795 128.601 44.4691C128.785 43.8744 128.999 43.2796 129.229 42.6849L131.989 35.2581C132.082 35.0349 132.239 34.8443 132.441 34.711C132.644 34.5778 132.882 34.5081 133.124 34.5109H136.467L128.033 54.2749Z" fill="white"/>
</svg>
