<svg width="162" height="50" fill="none" xmlns="http://www.w3.org/2000/svg"><path d="M8.28101 45.6821c0-.8891-.30509-1.6387-.90656-2.2576-.60146-.6189-1.33367-.924-2.18792-.924-.7758 0-1.447.2441-2.0136.7409-.55788.4882-.90655 1.0809-1.0373 1.787h-.8281v-2.3972H0v6.1018h1.30753v-2.4843h.8281c.13075.741.47942 1.3686 1.0373 1.8654.55788.4969 1.22908.7497 2.0136.7497.85425 0 1.58646-.3051 2.18792-.924.60147-.6102.90656-1.3685.90656-2.2577zm-1.30753 0c0 .5753-.17434 1.0548-.52301 1.4296-.35739.3835-.7758.5753-1.26394.5753-.48815 0-.90656-.1918-1.25523-.5753-.35739-.3748-.53173-.8543-.53173-1.4296s.17434-1.0547.53173-1.4382c.34867-.3749.76708-.5666 1.25523-.5666.48814 0 .90655.1917 1.26394.5666.34867.3835.52301.8629.52301 1.4382zM10.3682 42.6316v6.1018h1.3075v-2.0049h1.2639c.6276 0 1.1507-.2005 1.5604-.5927.4096-.3923.6188-.8804.6188-1.4557 0-.5841-.2092-1.0635-.6188-1.4645-.4185-.3922-.9328-.584-1.5604-.584h-2.5714zm2.5279 1.1768c.2615 0 .4794.0871.6537.2528.1744.1656.2615.3748.2615.6189 0 .244-.0871.4532-.2615.6188-.1743.1657-.3922.2528-.6537.2528h-1.2204v-1.7433h1.2204zM22.6097 48.7334v-6.1018h-1.1332l-3.0074 3.879v-3.879h-1.3075v6.1018h1.1332l3.0073-3.879v3.879h1.3076zM24.2598 47.5566v2.4407h1.3075v-1.2639h3.6611v1.2639h1.3075v-2.4407h-.7409v-4.925h-4.2277v1.8741c0 .4097-.0349.7932-.1046 1.1506-.0697.3661-.1482.6538-.2266.8717-.0872.2092-.1831.401-.2964.584-.1133.1744-.1831.2877-.2267.34-.0523.0436-.0784.0872-.1046.1046h-.3486zm2.615-3.0509v-.6973h1.6126v3.7482H25.916l.1046-.1046c.061-.0697.1394-.183.2353-.3487.0959-.1656.1831-.3574.279-.5753.0958-.2179.1743-.5143.2353-.8717.0698-.3574.1046-.7409.1046-1.1506zM37.8489 48.7334v-6.1018h-1.1332l-3.0073 3.879v-3.879h-1.3075v6.1018h1.1332l3.0073-3.879v3.879h1.3075zM41.5053 42.6316h-1.3075v1.8741c0 .7322.1917 1.2988.5753 1.6998.3922.4097.924.6102 1.6039.6102.584 0 1.0634-.1133 1.4382-.3487v2.2664h1.3076v-6.1018h-1.3076v2.5715l-.1481.1133c-.0959.0697-.2441.1395-.4446.2179-.2005.0697-.4097.1046-.6276.1046-.3487 0-.6189-.0959-.8107-.2877-.183-.2004-.2789-.4794-.2789-.8455v-1.8741zM52.7887 42.6316h-1.3075v2.4407h-2.6151v-2.4407h-1.3075v6.1018h1.3075v-2.4843h2.6151v2.4843h1.3075v-6.1018zM58.3637 46.1619h-1.4818l.7409-2.0049.7409 2.0049zm.4359 1.1332l.523 1.4383h1.3947l-2.3971-6.1018h-1.3947l-2.3972 6.1018h1.3947l.523-1.4383h2.3536zM66.4179 42.6316h-1.3075v6.1018h1.3075V46.99l.7845-.8717 1.7869 2.6151h1.5255l-2.4407-3.5739 2.2664-2.5279H68.815l-2.3971 2.6586v-2.6586zM73.169 45.6821c0-.5578.1918-1.0373.5753-1.4208.3748-.3923.8368-.584 1.386-.584.5491 0 1.0111.1917 1.386.584.3835.3835.5753.863.5753 1.4208 0 .5666-.1918 1.0373-.5753 1.4209-.3749.3922-.8369.584-1.386.584-.5492 0-1.0112-.1918-1.386-.584-.3835-.3836-.5753-.8543-.5753-1.4209zm-1.3511 0c0 .8717.3225 1.6301.9588 2.249.6364.6189 1.4209.9327 2.3536.9327.9327 0 1.7172-.3138 2.3535-.9327.6364-.6189.9589-1.3773.9589-2.249 0-.8804-.3225-1.63-.9589-2.2489-.6363-.6189-1.4208-.9327-2.3535-.9327-.9327 0-1.7172.3138-2.3536.9327-.6363.6189-.9588 1.3685-.9588 2.2489zM83.7986 45.2902l-2.092-2.6586h-1.1768v6.1018h1.3075v-4.0533l1.9613 2.4843 1.9613-2.5018v4.0708h1.3075v-6.1018h-1.1593l-2.1095 2.6586zM94.6875 42.6316H89.501v6.1018h1.3075v-4.925H93.38v4.925h1.3075v-6.1018zM100.264 46.1619h-1.4822l.7409-2.0049.7413 2.0049zm.435 1.1332l.523 1.4383h1.395l-2.397-6.1018h-1.3946l-2.3972 6.1018h1.3947l.523-1.4383h2.3531zM109.587 42.6316h-1.308v2.4407h-2.615v-2.4407h-1.308v6.1018h1.308v-2.4843h2.615v2.4843h1.308v-6.1018zM113.329 42.6316h-1.307v6.1018h1.307v-6.1018zM120.298 42.6316h-2.702c-.611 0-1.107.1918-1.5.5753-.392.3835-.592.863-.592 1.4296 0 .244.043.4707.113.6886.078.2179.166.3835.27.5056.096.122.201.2353.331.3399.122.1046.21.1744.262.2005.043.0175.087.0436.113.0523l-1.307 2.31h1.394l1.177-2.1356h1.133v2.1356h1.308v-6.1018zm-3.487 2.0049c0-.2441.079-.4359.235-.5928.157-.1569.358-.2353.593-.2353h1.351v1.6126h-1.351c-.235 0-.436-.0785-.593-.2267-.156-.1481-.235-.3399-.235-.5578z" fill="#46466E"/><path fill-rule="evenodd" clip-rule="evenodd" d="M152.206 20.9163h-9.543l4.205-12.79325 4.757.02812-2.762 8.43703 4.743.0028-1.4 4.3253z" fill="url(#paint0_linear)"/><path fill-rule="evenodd" clip-rule="evenodd" d="M132.724 37.5235H128s8.604-26.4883 10.613-32.67169C139.552 1.95875 142.247 0 145.287 0h8.445c2.547 0 4.672 1.07604 5.993 2.89435 1.321 1.81841 1.695 4.14512.925 6.51874-.771 2.37361-1.499 4.61421-2.166 6.66721-.9 2.772-3.394 4.6821-6.277 4.8374 0 0-.015-.0049 4.025-12.44379.357-1.0977.226-2.17215-.334-2.94275-.559-.7705-1.503-1.22652-2.752-1.22652H145.9c-1.423 0-2.684.91661-3.124 2.27045L132.724 37.5235z" fill="#F0145A"/><path d="M27.108.0090332H23V28.7651h4.108V.0090332zM51.3377 20.3433l.2054-2.054c0-2.7524-.9037-5.0528-2.7523-6.9014-1.8486-1.84864-4.1491-2.7524-6.9015-2.7524-2.7523 0-5.135.98592-7.1068 2.9578-1.9719 1.9718-2.9578 4.3134-2.9578 7.1068 0 2.8756 1.027 5.3404 3.0399 7.3944 2.013 2.054 4.4367 3.081 7.2301 3.081 1.0681 0 2.054-.1643 3.0399-.4519.986-.3286 1.8076-.6572 2.3827-.9859.6162-.3697 1.2324-.7805 1.7664-1.2324.5341-.4519.9038-.7805 1.0681-.9859.1643-.2054.2876-.3286.3697-.4519l-2.6702-2.6702-.6162.7805c-.4108.493-1.1091.986-2.0951 1.52-1.027.534-2.095.7805-3.2453.7805-1.6021 0-2.9577-.4929-4.108-1.5199-1.1502-1.027-1.8486-2.2184-2.054-3.6151h15.405zm-9.4484-8.216c1.52 0 2.7524.4519 3.7794 1.3146.9859.9037 1.6021 2.0129 1.8486 3.4096H36.097c.3698-1.3967 1.027-2.5059 2.054-3.4096.986-.8627 2.2594-1.3146 3.7383-1.3146zM70.497 27.5734c0 1.8075-.5341 3.2864-1.6432 4.4366-1.0681 1.1092-2.4237 1.6843-4.108 1.6843-.7395 0-1.4789-.1232-2.1773-.3286-.6983-.2054-1.2324-.4519-1.6843-.7395-.4518-.2875-.8626-.5751-1.2734-.9448-.3698-.3697-.6162-.6162-.7395-.7395-.1232-.1232-.2054-.2464-.2875-.3286l-2.6702 2.6702.3286.4108c.2054.2876.5751.6573 1.0681 1.0681.4929.3697 1.0681.7805 1.7253 1.1913.6573.3697 1.4789.6984 2.5059.9859 1.027.2876 2.0951.4519 3.2043.4519 2.7934 0 5.0939-.9448 7.0247-2.8345 1.8896-1.9308 2.8345-4.2312 2.8345-7.0247V9.0463h-4.108v2.054l-.6984-.6162c-.4519-.4108-1.1502-.8216-2.1361-1.2324-.986-.4108-2.054-.6162-3.1221-.6162-2.5059 0-4.6421.94484-6.4907 2.8756-1.8486 1.9308-2.7523 4.2312-2.7523 6.9836 0 2.7524.9037 5.0528 2.7523 6.9836 1.8486 1.9308 3.9848 2.8756 6.4907 2.8756.6983 0 1.3556-.0821 2.054-.2465.6573-.2054 1.1913-.4108 1.6432-.6162.4519-.2054.8627-.4519 1.2324-.7394.3697-.2876.6573-.493.7394-.5751l.2876-.2876v1.6843zm-11.0916-9.0787c0-1.7254.534-3.1632 1.6432-4.3545 1.1091-1.1913 2.4237-1.8075 3.9026-1.8075 1.4789 0 2.7934.6162 3.9026 1.8075 1.0681 1.1913 1.6432 2.6291 1.6432 4.3545 0 1.7254-.5751 3.1632-1.6432 4.3545-1.1092 1.1913-2.4237 1.8075-3.9026 1.8075-1.4789 0-2.7935-.6162-3.9026-1.8075-1.1092-1.1913-1.6432-2.6291-1.6432-4.3545zM96.0472 28.7647V16.0299c0-2.0951-.7805-3.8615-2.3004-5.2582-1.52-1.43784-3.4918-2.1362-5.9156-2.1362-.9448 0-1.8897.12324-2.7934.36972-.9038.28756-1.6432.57512-2.1773.90376-.534.32862-1.068.69832-1.561 1.15022-.493.4108-.7805.6984-.9448.8627-.1233.1643-.2465.2876-.3287.4108l2.6702 2.6702.5341-.6984c.3286-.4518.9037-.8626 1.7664-1.3145.8627-.4519 1.8075-.6573 2.8345-.6573 1.1914 0 2.1773.3697 2.9578 1.0681.7805.6983 1.1502 1.6021 1.1502 2.6291l-7.189 1.2324c-1.7664.2876-3.2042.9859-4.1901 2.0951-1.027 1.1092-1.5611 2.4648-1.5611 4.0669 0 1.52.6573 2.8345 1.9719 3.9848 1.3556 1.1913 2.9988 1.7664 5.0117 1.7664.6984 0 1.3557-.0821 2.013-.2875.6983-.1644 1.2324-.3698 1.6842-.5752.4519-.2054.8627-.4518 1.2324-.7394.3698-.2876.6162-.493.7806-.5751.1232-.1233.2054-.2465.2464-.2876v2.054h4.108zm-9.4484-3.2864c-1.0681 0-1.9307-.2465-2.5469-.7394-.6573-.493-.9449-1.0681-.9449-1.7254 0-.6983.2054-1.3145.6573-1.7664.4519-.4519 1.0681-.7805 1.8075-.9038l6.3674-1.027v.4108c0 1.8486-.4518 3.2453-1.3967 4.2723-.9448.986-2.2594 1.4789-3.9437 1.4789zM105.112.0090332h-4.108V28.7651h4.108V.0090332zM123.791 11.3057l-.246-.2876c-.165-.1643-.411-.3697-.781-.6572-.369-.2876-.78-.53408-1.232-.82164-.452-.24648-1.068-.45188-1.808-.65728-.739-.16432-1.52-.24648-2.3-.24648-2.013 0-3.656.57512-4.971 1.7254-1.355 1.1913-2.013 2.5058-2.013 4.0258 0 1.1092.247 2.0129.74 2.8345.493.7805 1.109 1.3557 1.889 1.6843.74.3697 1.561.7394 2.424 1.027.863.2876 1.643.5341 2.424.7395.739.2464 1.355.534 1.848.9037.493.3697.74.8627.74 1.4378 0 .7395-.288 1.3557-.822 1.8075-.534.4108-1.355.6573-2.465.6573-.903 0-1.807-.2465-2.67-.6573-.862-.4518-1.396-.8216-1.684-1.1091-.247-.2876-.452-.5341-.575-.6984l-2.67 2.6702.287.3697c.206.2465.493.5341.904.8627.452.3697.945.6984 1.479 1.027.575.3287 1.314.6162 2.177.8627.863.2465 1.808.3697 2.752.3697 2.178 0 3.985-.6162 5.341-1.8075 1.356-1.1913 2.054-2.6702 2.054-4.3545 0-1.1091-.247-2.054-.74-2.7934-.493-.7806-1.109-1.3557-1.889-1.7254-.74-.4108-1.561-.7394-2.424-1.027-.863-.2876-1.643-.5751-2.424-.7394-.739-.2054-1.355-.5341-1.848-.9038-.493-.3697-.74-.8627-.74-1.4378 0-.534.247-1.027.781-1.4378.493-.4108 1.191-.6162 2.095-.6162.657 0 1.314.1643 1.931.4519.657.2875 1.109.534 1.314.7394.206.2054.37.3697.452.4519l2.67-2.6702z" fill="#323264"/><path d="M4.16699.291992H.0830078V29H4.16699V18.3496c0-1.8017.46045-3.2231 1.38135-4.2241s2.18213-1.5215 3.74365-1.5215c1.34131 0 2.46241.4805 3.36331 1.4014.9009.9409 1.3613 2.122 1.3613 3.5434V29.02h4.104V17.5488c0-2.6426-.7407-4.7246-2.2222-6.2861-1.4814-1.56153-3.4233-2.34229-5.7856-2.34229-.68067 0-1.36134.08008-2.02198.26025-.68066.18018-1.22119.38038-1.66162.60059-.44043.22025-.86084.46045-1.24121.74075-.38037.2802-.64063.4804-.76074.6006-.12012.1201-.22022.2002-.26026.2602V.291992z" fill="#F0145A"/><defs><linearGradient id="paint0_linear" x1="142.662" y1="18.4659" x2="153.28" y2="24.0135" gradientUnits="userSpaceOnUse"><stop stop-color="#F0145A"/><stop offset="1" stop-color="#693264"/></linearGradient></defs></svg>