<svg width="150" height="174" fill="none" xmlns="http://www.w3.org/2000/svg"><path fill-rule="evenodd" clip-rule="evenodd" d="M11.797 173.31H0S47.3565 27.5506 52.3741 12.1131C54.7216 4.89025 61.4513 0 69.0446 0h21.0901c6.36 0 11.6683 2.68645 14.9683 7.22606 3.298 4.53984 4.233 10.34874 2.31 16.27474-1.925 5.926-3.744 11.52-5.409 16.6455-2.2486 6.9206-8.4771 11.6893-15.6783 12.0771 0 0-.0373-.0121 10.0524-31.0673.8909-2.7406.5658-5.423-.8338-7.3469-1.397-1.9237-3.7544-3.0622-6.8737-3.0622H70.5732c-3.5534 0-6.7025 2.2884-7.8018 5.6685L11.797 173.31z" fill="#F0145A"/><path fill-rule="evenodd" clip-rule="evenodd" d="M86.3233 52.224H62.5457l10.4769-31.8639 11.8529.0701L77.993 41.444l11.8176.007-3.4873 10.773z" fill="url(#paint0_linear)"/><defs><linearGradient id="paint0_linear" x1="62.544" y1="46.1209" x2="88.9942" y2="59.9456" gradientUnits="userSpaceOnUse"><stop stop-color="#F0145A"/><stop offset="1" stop-color="#693264"/></linearGradient></defs></svg>