<svg width="100" height="100" fill="none" xmlns="http://www.w3.org/2000/svg"><path fill-rule="evenodd" clip-rule="evenodd" d="M15.4771 97.7217H.00146484S19.9174 36.4208 26.4996 16.1692C29.5791 6.69403 38.4075.278809 48.3687.278809h27.6668c8.3434 0 15.3065 3.524191 19.636 9.479441 4.3263 5.95555 5.5535 13.57595 3.0307 21.34995-2.5261 7.7739-4.9122 15.1124-7.0965 21.8362-2.9494 9.0787-11.1201 15.3344-20.567 15.8432 0 0-.0489-.0159 13.1872-40.7554 1.1687-3.5951.7422-7.1141-1.0938-9.638-1.8327-2.5235-4.9253-4.017-9.0172-4.017H50.374c-4.6616 0-8.7926 3.002-10.2347 7.4361L15.4771 97.7217z" fill="#F0145A"/><path fill-rule="evenodd" clip-rule="evenodd" d="M71.0378 68.7874H39.8452l13.7442-41.8003 15.549.0919-9.0287 27.5667 15.5028.0093-4.5747 14.1324z" fill="url(#paint0_linear)"/><defs><linearGradient id="paint0_linear" x1="39.843" y1="60.7811" x2="74.5415" y2="78.917" gradientUnits="userSpaceOnUse"><stop stop-color="#F0145A"/><stop offset="1" stop-color="#693264"/></linearGradient></defs></svg>