<svg width="22" height="24" viewBox="0 0 22 24" fill="none" xmlns="http://www.w3.org/2000/svg">
<path fill-rule="evenodd" clip-rule="evenodd" d="M15.9981 13.351H9.88806L12.5803 5.18506L15.6261 5.20301L13.8575 10.5883L16.8942 10.5901L15.9981 13.351Z" fill="url(#paint0_linear)"/>
<path fill-rule="evenodd" clip-rule="evenodd" d="M3.52421 23.9512H0.5C0.5 23.9512 6.00834 7.04374 7.29462 3.0969C7.89641 1.25027 9.62162 0 11.5682 0H16.9748C18.6052 0 19.9659 0.686832 20.812 1.84746C21.6574 3.00814 21.8972 4.49328 21.4042 6.00835C20.9106 7.52343 20.4443 8.95362 20.0174 10.264C19.4411 12.0334 17.8444 13.2526 15.9983 13.3517C15.9983 13.3517 15.9888 13.3486 18.5753 5.40888C18.8037 4.70822 18.7203 4.0224 18.3616 3.53053C18.0034 3.03872 17.3991 2.74765 16.5994 2.74765H11.9601C11.0491 2.74765 10.2419 3.33271 9.96004 4.19687L3.52421 23.9512Z" fill="#F0145A"/>
<defs>
<linearGradient id="paint0_linear" x1="9.88763" y1="11.7869" x2="16.6766" y2="15.3448" gradientUnits="userSpaceOnUse">
<stop stop-color="#F0145A"/>
<stop offset="1" stop-color="#693264"/>
</linearGradient>
</defs>
</svg>
